<?xml version="1.0" encoding="UTF-8" standalone="no"?>
<svg
   xmlns:dc="http://purl.org/dc/elements/1.1/"
   xmlns:cc="http://creativecommons.org/ns#"
   xmlns:rdf="http://www.w3.org/1999/02/22-rdf-syntax-ns#"
   xmlns:svg="http://www.w3.org/2000/svg"
   xmlns="http://www.w3.org/2000/svg"
   width="7.2203689in"
   height="3.1891339in"
   id="svg2"
   version="1.1">
  <defs
     id="defs4"><marker
   orient="auto"
   refY="0"
   refX="0"
   id="marker3483"
   style="overflow:visible">
  <path
     id="path3481"
     d="M 5.77,0 -2.88,5 V -5 Z"
     style="fill:#ffffff;fill-opacity:0;fill-rule:evenodd;stroke:#ffffff;stroke-width:1pt;stroke-opacity:1"
     transform="scale(0.8)" />
</marker>
<marker
   style="overflow:visible"
   id="marker3473"
   refX="0"
   refY="0"
   orient="auto">
  <path
     transform="scale(0.8)"
     style="fill:#ffffff;fill-opacity:0;fill-rule:evenodd;stroke:#ffffff;stroke-width:1pt;stroke-opacity:1"
     d="M 5.77,0 -2.88,5 V -5 Z"
     id="path3471" />
</marker>
<marker
   orient="auto"
   refY="0"
   refX="0"
   id="marker1412"
   style="overflow:visible">
  <path
     id="path1410"
     d="M 5.77,0 -2.88,5 V -5 Z"
     style="fill:#ffffff;fill-opacity:0;fill-rule:evenodd;stroke:#ffffff;stroke-width:1pt;stroke-opacity:1"
     transform="scale(0.8)" />
</marker>
<marker
   style="overflow:visible"
   id="TriangleOutL"
   refX="0"
   refY="0"
   orient="auto">
  <path
     transform="scale(0.8)"
     style="fill:#ffffff;fill-opacity:0;fill-rule:evenodd;stroke:#ffffff;stroke-width:1pt;stroke-opacity:1"
     d="M 5.77,0 -2.88,5 V -5 Z"
     id="path1070" />
</marker>
<marker
   style="overflow:visible"
   id="Arrow2Lend"
   refX="0"
   refY="0"
   orient="auto">
  <path
     transform="matrix(-1.1,0,0,-1.1,-1.1,0)"
     d="M 8.7185878,4.0337352 -2.2072895,0.01601326 8.7185884,-4.0017078 c -1.7454984,2.3720609 -1.7354408,5.6174519 -6e-7,8.035443 z"
     style="fill:#000000;fill-opacity:1;fill-rule:evenodd;stroke:#000000;stroke-width:0.625;stroke-linejoin:round;stroke-opacity:1"
     id="path949" />
</marker>

	
	
<style
   id="style3735">.cls-1{fill:none}</style>
<style
   id="style3814">.cls-1{fill:#fff}.cls-2{fill:none}</style>
</defs>
  <metadata
     id="metadata7">
    <rdf:RDF>
      <cc:Work
         rdf:about="">
        <dc:format>image/svg+xml</dc:format>
        <dc:type
           rdf:resource="http://purl.org/dc/dcmitype/StillImage" />
        <dc:title></dc:title>
      </cc:Work>
    </rdf:RDF>
  </metadata>
  <g
     style="fill:#ffffff"
     id="layer1"
     transform="matrix(0.17598785,0,0,0.17598785,129.76537,57.526748)">
    <g
       style="fill:#ffffff"
       id="g3052">
      <path
         id="path3055"
         style="fill:#ffffff;fill-opacity:1;stroke:#ffffff;stroke-width:0;stroke-miterlimit:4;stroke-dasharray:none;stroke-opacity:1"
         d="m 361.60547,10 a 46.724621,46.342246 0 0 0 -2.61914,0.06055 46.724621,46.342246 0 0 0 -17.90625,4.53125 l -244.343752,116.75 a 46.724621,46.342246 0 0 0 -25.28125,31.4375 l -60.28125,262.25 a 46.724621,46.342246 0 0 0 6.34375,35.53125 46.724621,46.342246 0 0 0 2.65625,3.6875 L 189.29883,674.5293 a 46.724621,46.342246 0 0 0 36.53125,17.4375 l 271.21875,-0.0625 a 46.724621,46.342246 0 0 0 36.53125,-17.40625 l 169.0625,-210.3125 a 46.724621,46.342246 0 0 0 9.03125,-39.21875 l -60.375,-262.25 A 46.724621,46.342246 0 0 0 626.01758,131.2793 L 381.64258,14.591797 A 46.724621,46.342246 0 0 0 361.60547,10 Z m -0.19727,89.306641 c 8.07696,-8.2e-4 14.62404,7.275909 14.625,16.249999 0.005,1.27224 0.075,2.97962 0.0312,4.15625 -0.19262,5.176 -1.3209,9.13749 -2,13.90625 -1.23028,10.20666 -2.29242,18.66736 -1.65625,26.53125 0.57783,3.93564 2.87754,5.49085 4.78125,7.3125 0.0433,1.06008 0.21369,4.58253 0.34375,6.53125 46.50139,4.13084 89.68745,25.39568 121.40625,58.65625 l 5.5625,-3.96875 c 1.88509,0.11103 6.03899,0.68231 8.875,-0.96875 6.54468,-4.40598 12.50626,-10.5178 19.71875,-17.84375 3.3048,-3.50436 5.72975,-6.84079 9.65625,-10.21875 0.89647,-0.77123 2.25144,-1.8029 3.25,-2.59375 7.01538,-5.59633 16.77567,-5.00158 21.8125,1.3125 5.03683,6.31408 3.42163,15.96617 -3.59375,21.5625 -0.98985,0.79616 -2.2765,1.89799 -3.21875,2.59375 -4.16671,3.07677 -8.00458,4.65123 -12.15625,7.09375 -8.74671,5.40227 -15.99866,9.88056 -21.75,15.28125 -2.7166,2.90572 -2.51284,5.65708 -2.75,8.28125 -0.81131,0.74534 -3.67245,3.27896 -5.1875,4.65625 12.60588,18.76291 22.05786,40.05904 27.40625,63.34375 5.29905,23.06991 6.12476,46.12683 3.0625,68.28125 l 5.90625,1.71875 c 1.06152,1.50251 3.24424,5.15347 6.3125,6.34375 7.52525,2.36981 15.99419,3.24112 26.21875,4.3125 4.80033,0.3989 8.94213,0.16122 14.03125,1.125 1.21775,0.23062 2.99607,0.71487 4.25,1 8.6207,2.08049 14.15574,10.00554 12.375,17.8125 -1.78116,7.80879 -10.20264,12.55445 -18.875,10.6875 -0.0626,-0.0143 -0.15345,-0.0167 -0.21875,-0.0312 -0.0979,-0.0223 -0.18405,-0.07 -0.28125,-0.0937 -1.20887,-0.2653 -2.72376,-0.52941 -3.78125,-0.8125 -5.0034,-1.33937 -8.62685,-3.33944 -13.125,-5.0625 -9.67712,-3.47027 -17.69168,-6.37063 -25.5,-7.5 -3.96556,-0.31227 -5.98796,1.58055 -8.1875,3.03125 -1.06846,-0.21439 -4.3576,-0.79633 -6.25,-1.09375 -14.01394,44.04121 -43.8551,82.17434 -84.3125,106.0625 0.69869,1.68616 1.88372,5.27148 2.4375,5.90625 -0.92472,2.46726 -2.31211,4.82843 -1.125,8.625 2.83907,7.36105 7.43154,14.55683 12.96875,23.21875 2.68105,4.00177 5.42429,7.07649 7.84375,11.65625 0.57895,1.09586 1.34736,2.77936 1.90625,3.9375 3.76099,8.04135 1.00075,17.30335 -6.21875,20.78125 -7.27663,3.50542 -16.32393,-0.19641 -20.21875,-8.28125 -0.5565,-1.14514 -1.34016,-2.66805 -1.8125,-3.75 -2.07238,-4.74692 -2.79262,-8.81514 -4.25,-13.40625 -3.32035,-9.72959 -6.04586,-17.78477 -10.03125,-24.59375 -2.22831,-3.29511 -4.96316,-3.71607 -7.46875,-4.53125 -0.46387,-0.7993 -2.19402,-3.97367 -3.125,-5.625 -8.07931,3.05305 -16.43678,5.59693 -25.09375,7.5625 -37.94834,8.61621 -75.93676,5.12055 -109.875,-7.90625 l -3.3125,6 c -2.46561,0.66014 -4.84405,1.33008 -6.30273,3.07031 -5.32691,6.35508 -7.45265,16.5533 -11.32227,26.27344 -1.45714,4.59119 -2.14662,8.65923 -4.21875,13.40625 -0.46897,1.07438 -1.25657,2.5762 -1.8125,3.71875 -0.004,0.009 0.004,0.0222 0,0.0312 -0.006,0.0114 -0.0253,0.0199 -0.0312,0.0312 -3.90303,8.05866 -12.92175,11.74788 -20.1875,8.25 -7.22039,-3.47605 -9.97759,-12.73889 -6.21875,-20.78125 0.55882,-1.15818 1.2961,-2.84161 1.875,-3.9375 2.41922,-4.57989 5.1629,-7.68558 7.84375,-11.6875 5.53675,-8.66221 10.39765,-16.43177 13.23633,-23.79297 0.71319,-2.44462 -0.34141,-5.79411 -1.29883,-8.26953 l 2.65625,-6.375 c -38.92959,-23.06748 -69.67357,-59.82968 -84.34375,-105.3125 l -6.375,1.09375 c -1.70914,-0.95659 -5.14507,-3.22417 -8.40625,-2.96875 -7.80827,1.12978 -15.82306,4.02923 -25.5,7.5 -4.49806,1.72329 -8.12166,3.69162 -13.125,5.03125 -1.05748,0.28315 -2.5724,0.57839 -3.78125,0.84375 -0.0972,0.0238 -0.18335,0.0713 -0.28125,0.0937 -0.0652,0.0145 -0.15615,0.017 -0.21875,0.0312 -8.67186,1.86927 -17.09184,-2.87917 -18.875,-10.6875 -1.78274,-7.8065 3.75486,-15.72971 12.375,-17.8125 0.0642,-0.0146 0.15195,-0.047 0.21875,-0.0625 0.0426,-0.01 0.0824,-0.0223 0.125,-0.0312 1.22553,-0.28748 2.78617,-0.69407 3.90625,-0.90625 5.08907,-0.96405 9.23094,-0.72585 14.03125,-1.125 10.22451,-1.07191 18.69362,-1.94229 26.21875,-4.3125 2.38589,-0.97901 4.66695,-4.25914 6.28125,-6.34375 l 6.125,-1.78125 c -6.86316,-47.52804 4.75033,-94.17382 29.84375,-131.9375 l -4.6875,-4.1875 c -0.29892,-1.82458 -0.69148,-6.04333 -2.9375,-8.4375 -5.75163,-5.40039 -13.003,-9.87944 -21.75,-15.28125 -4.1518,-2.4423 -7.95813,-4.0172 -12.125,-7.09375 -0.88629,-0.65437 -2.06703,-1.65588 -3.03125,-2.4375 -0.0717,-0.0555 -0.14755,-0.0995 -0.21875,-0.15625 -7.01687,-5.59445 -8.62896,-15.24712 -3.59375,-21.5625 2.83231,-3.5524 7.16036,-5.31019 11.65625,-5.15625 3.4968,0.11973 7.11762,1.39618 10.1875,3.84375 0.99742,0.7892 2.35828,1.82668 3.25,2.59375 3.92668,3.37774 6.32002,6.71456 9.625,10.21875 7.21288,7.32557 13.17384,13.40687 19.71875,17.8125 3.43729,2.00204 6.07633,1.19637 8.6875,0.84375 0.84027,0.62086 3.66603,2.64807 5.28125,3.75 24.89242,-26.41068 57.58789,-45.97157 95.5625,-54.59375 8.82515,-2.00376 17.66068,-3.33533 26.4375,-4.0625 l 0.34375,-6.1875 c 1.94712,-1.88509 4.13131,-4.5971 4.75,-7.5625 0.63617,-7.86389 -0.39472,-16.32459 -1.625,-26.53125 -0.6791,-4.76876 -1.80738,-8.73025 -2,-13.90625 -0.0396,-1.06164 0.0193,-2.53064 0.0312,-3.75 -0.003,-0.13691 -0.0312,-0.26852 -0.0312,-0.40625 -9.6e-4,-8.97409 6.54804,-16.249179 14.625,-16.249999 z M 343.0957,212.74414 c -5.18409,0.6284 -10.38776,1.50547 -15.59375,2.6875 -28.49959,6.47086 -53.22885,20.5201 -72.5625,39.53125 l 62.90625,44.59375 0.125,-0.0625 c 2.13081,1.55646 4.75294,2.46875 7.59375,2.46875 6.93504,0 12.58366,-5.4804 12.875,-12.34375 l 0.3125,-0.15625 z m 36.65625,0 4.34375,76.59375 0.0625,0.0312 c 0.11178,2.63636 1.04118,5.24779 2.8125,7.46875 4.32407,5.42139 12.14005,6.42669 17.6875,2.375 l 0.21875,0.0937 62.5,-44.3125 c -23.57999,-23.09118 -54.35153,-38.15768 -87.625,-42.25 z m -147.625,70.875 c -17.04645,27.77011 -25.12228,61.07858 -21.375,95.34375 l 73.625,-21.25 0.0625,-0.25 c 2.54542,-0.69551 4.9163,-2.1852 6.6875,-4.40625 4.32388,-5.42206 3.55937,-13.24303 -1.625,-17.75 l 0.0625,-0.3125 z m 258.15625,0.0312 -57.125,51.125 0.0312,0.15625 c -1.99153,1.73111 -3.46172,4.07413 -4.09375,6.84375 -1.54268,6.76088 2.52975,13.50146 9.15625,15.3125 l 0.0625,0.3125 74,21.3125 c 1.56749,-15.96428 0.61356,-32.48297 -3.1875,-49.03125 -3.8472,-16.74911 -10.30965,-32.19869 -18.84375,-46.03125 z m -140.65625,55.3125 -14.65625,18.25 5.25,22.8125 21.1875,10.1875 21.125,-10.15625 5.25,-22.8125 -14.625,-18.28125 z m 75.4375,62.5625 c -1.66661,0.0842 -3.33785,0.51084 -4.9375,1.28125 -6.248,3.00919 -8.96561,10.40876 -6.25,16.71875 l -0.0937,0.125 29.5625,71.40625 c 28.49594,-18.15357 49.82325,-45.28065 60.96875,-76.59375 l -76.15625,-12.875 -0.125,0.15625 c -0.97317,-0.17915 -1.96878,-0.26925 -2.96875,-0.21875 z m -127.90625,0.3125 c -0.83025,-0.0117 -1.68674,0.0633 -2.53125,0.21875 l -0.125,-0.15625 -75.5,12.8125 c 11.65198,32.23842 33.43409,58.5139 60.78125,76.0625 l 29.25,-70.6875 -0.21875,-0.28125 c 1.04325,-2.42375 1.35094,-5.16792 0.71875,-7.9375 -1.35038,-5.916 -6.56326,-9.94975 -12.375,-10.03125 z m 63.78125,30.96875 c -4.45378,0.16363 -8.67858,2.64809 -10.90625,6.8125 h -0.0625 l -37.125,67.125 c 25.69263,8.75467 54.06672,10.7129 82.53125,4.25 5.07891,-1.15317 10.04471,-2.53702 14.875,-4.15625 l -37.21875,-67.25 h -0.28125 c -1.24452,-2.32681 -3.22174,-4.26747 -5.78125,-5.5 -1.9526,-0.94027 -4.0068,-1.35565 -6.03125,-1.28125 z"
         transform="translate(6.3260942,174.7524)" />
    </g>
  </g>
  <style
     type="text/css"
     id="style67">.st0{fill-rule:evenodd;clip-rule:evenodd;}</style>
  <path
     d="M 337.10953,85.129548 A 141.97006,85.373848 0 0 0 195.16339,1.3227379 141.97006,85.373848 0 0 0 53.217219,85.130108"
     style="fill:#ffffff;fill-opacity:0;stroke:#ffffff;stroke-width:2.646;stroke-miterlimit:4;stroke-dasharray:7.938, 2.646;stroke-dashoffset:0;marker-end:url(#TriangleOutL)"
     id="path93" />
  <path
     id="path1338"
     d="m 315.37817,103.24175 c -2.44041,0 -4.40508,1.96467 -4.40508,4.40508 v 79.29143 c 0,2.44041 1.96467,4.40508 4.40508,4.40508 h 61.67111 c 2.44041,0 4.40508,-1.96467 4.40508,-4.40508 v -57.26603 l -24.22794,-2.20254 -2.20254,-24.22794 z"
     fill="#607d8b"
     style="fill:none;stroke-width:1.76203" />
  <path
     id="path1342"
     d="m 357.17742,103.06729 v 21.22613 c 0,2.34472 1.89621,4.24522 4.23527,4.24522 h 21.17636 z"
     fill="#b1d1e0"
     style="fill:#ffffff;stroke-width:1.69609" />
  <path
     id="path1346"
     d="m 326.83138,134.00645 v 5.28609 h 28.1925 v -5.28609 z m 10.57219,10.57219 v 5.28609 h 28.1925 v -5.28609 z m 10.57219,21.14438 v 5.28609 h 17.62031 v -5.28609 z m 0,-10.57219 v 5.28609 h 17.62031 v -5.28609 z"
     style="fill:#ffffff;stroke-width:1.76203" />
  <path
     id="path1408"
     style="fill:#ffffff;fill-opacity:0;stroke:#ffffff;stroke-width:2.646;stroke-miterlimit:4;stroke-dasharray:15.876, 2.646;stroke-dashoffset:0;marker-end:url(#marker1412)"
     d="M 51.217219,221.02657 A 141.97006,85.373848 0 0 0 193.16339,304.83394 141.97006,85.373848 0 0 0 335.10953,221.02713" />
  <path
     d="m 381.1625,128.43508 -1e-5,60.45909 c 0,3.07384 -2.47461,5.54844 -5.54845,5.54844 h -59.12328 c -3.07384,0 -5.54845,-2.4746 -5.54845,-5.54844 v -78.86733 c 0,-3.07384 2.47461,-5.54845 5.54845,-5.54845 v 0 h 40.715"
     style="fill:none;fill-opacity:1;stroke:#ffffff;stroke-width:2.646;stroke-miterlimit:4;stroke-dasharray:none;stroke-dashoffset:0"
     id="rect1657" />
  <style
     type="text/css"
     id="style3316">
	.st0{fill:#EA4335;}
	.st1{fill:#4285F4;}
	.st2{fill:#34A853;}
	.st3{fill:#FBBC05;}
	.st4{fill:#5F6368;}
</style>
  <g
     style="display:none"
     transform="matrix(0.06698901,0,0,0.06698901,5.3674595e-4,110.82364)"
     id="g3330">
		<path
   id="path3322"
   d="m 1057.1,369.2 h 50.8 l 144.8,-144.8 7.1,-61.5 C 990.3,-75 579,-49.3 341.1,220.2 275,295 227.1,384.1 200.9,480.5 c 16.1,-6.6 34,-7.7 50.8,-3 l 289.6,-47.8 c 0,0 14.7,-24.4 22.4,-22.9 128.8,-141.5 345.6,-158 494.4,-37.6 z"
   class="st0" />

		<path
   id="path3324"
   d="m 1459,480.5 c -33.3,-122.6 -101.6,-232.8 -196.6,-317 l -203.2,203.2 c 85.8,70.1 134.7,175.8 132.6,286.6 v 36.1 c 99.9,0 180.9,81 180.9,180.9 0,99.9 -81,180.9 -180.9,180.9 H 830 l -36.1,36.6 v 217 l 36.1,36.1 h 361.8 c 259.8,2 472.1,-207 474.1,-466.8 1.2,-157.8 -76.5,-305.4 -206.9,-393.6 z"
   class="st1" />

		<path
   id="path3326"
   d="M 467.7,1338.6 H 829.5 V 1049 H 467.7 c -25.8,0 -51.2,-5.6 -74.7,-16.3 l -50.8,15.8 -145.8,144.8 -12.7,50.8 c 81.7,61.8 181.5,95 284,94.5 z"
   class="st2" />

		<path
   id="path3328"
   d="M 467.7,399.2 C 207.8,400.7 -1.5,612.6 0,872.5 c 0.9,145.1 68.6,281.7 183.7,370.1 L 393.5,1032.8 C 302.5,991.7 262,884.5 303.1,793.5 c 41.1,-91 148.3,-131.5 239.3,-90.4 40.1,18.1 72.2,50.3 90.4,90.4 L 842.6,583.7 C 753.4,466.9 614.6,398.6 467.7,399.2 Z"
   class="st3" />

	</g>
  <path
     id="path3449"
     style="fill:#ffffff;fill-opacity:0;stroke:#ffffff;stroke-width:2.646;stroke-miterlimit:4;stroke-dasharray:7.938, 2.646;stroke-dashoffset:0;marker-end:url(#marker3483)"
     d="M 645.10953,85.129548 A 141.97006,85.373848 0 0 0 503.16339,1.3227379 141.97006,85.373848 0 0 0 361.21722,85.130108" />
  <path
     d="m 359.21722,221.02657 a 141.97006,85.373848 0 0 0 141.94617,83.80737 141.97006,85.373848 0 0 0 141.94614,-83.80681"
     style="fill:#ffffff;fill-opacity:0;stroke:#ffffff;stroke-width:2.646;stroke-miterlimit:4;stroke-dasharray:15.876, 2.646;stroke-dashoffset:0;marker-end:url(#marker3473)"
     id="path3457" />
  <g
     transform="matrix(0.35727565,0,0,0.35727565,438.45957,89.422444)"
     id="g3837">
    <path
       d="m 178.17168,173.50075 c -0.1203,-0.0115 -0.2406,-0.0235 -0.36059,-0.0386 0.11991,0.0183 0.24023,0.0246 0.36059,0.0386 z m 0.59967,0.0427 a 10.136,10.136 0 0 0 1.14594,0 q -0.57285,0.0267 -1.14594,0 z m 2.10621,-0.0813 c -0.11988,0.0151 -0.24012,0.027 -0.36036,0.0386 0.1203,-0.014 0.24054,-0.0203 0.36036,-0.0386 z M 298.96478,80.70454 184.89446,6.54433 a 10.18235,10.18235 0 0 0 -11.10022,0 L 59.72393,80.70454 a 10.18249,10.18249 0 0 0 0,17.07392 l 107.61285,69.962 V 116.8694 a 6.00343,6.00343 0 0 0 -6.00341,-6.00342 h -7.913 a 6.00321,6.00321 0 0 1 -5.199,-9.005 l 25.924,-44.902 a 6.00355,6.00355 0 0 1 10.39837,0 l 25.92383,44.902 a 6.0033,6.0033 0 0 1 -5.1991,9.005 h -7.91278 a 6.00343,6.00343 0 0 0 -6.00341,6.00342 v 50.87091 l 107.6125,-69.96185 a 10.1825,10.1825 0 0 0 0,-17.07392 z"
       class="cls-1"
       id="path3818" />
    <path
       d="m 173.79348,353.27108 a 10.12828,10.12828 0 0 0 3.45643,1.402 c -2.17549,-1.2312 -4.38727,-2.37429 -6.62269,-3.46036 z m -6.45667,-161.19546 -11.3157,7.35661 a 110.993,110.993 0 0 0 11.31571,6.5997 z m 24.01537,23.71607 c 9.73858,3.11505 19.81317,5.64851 30.10973,8.18655 10.92032,2.69182 21.97355,5.42717 32.81792,9.00839 l -35.41606,-23.02482 a 215.88133,215.88133 0 0 1 -27.51161,-9.41007 z m 0,62.19159 v 0.58577 c 0,2.56929 -2.68787,4.65195 -6.00338,4.65195 h -12.00855 c -3.31549,0 -6.00338,-2.08266 -6.00338,-4.65195 v -6.60473 c -24.90538,-6.40209 -49.87294,-14.48506 -70.85945,-33.8211 L 81.94819,247.589 c 22.46761,22.0509 50.27893,28.93291 79.71441,36.1886 27.17852,6.69856 55.18051,13.65144 78.68557,33.44222 l 14.67907,-9.54334 c -18.53142,-16.50431 -40.40962,-23.68778 -63.67506,-29.6932 z m -98.03756,22.96639 38.90829,25.29525 c 20.06438,5.11336 40.20029,11.24773 58.311,23.36044 l 14.90023,-9.687 c -19.7518,-13.6724 -42.5505,-19.3134 -66.41889,-25.197 -15.28704,-3.76779 -30.83479,-7.6166 -45.70063,-13.77169 z m 74.02219,-82.25413 a 124.3199,124.3199 0 0 1 -21.53392,-12.62006 l -14.80531,9.62521 a 124.54057,124.54057 0 0 0 36.33923,18.708 z m 51.41006,16.29412 c -9.1062,-2.24474 -18.30362,-4.52388 -27.39469,-7.29853 v 13.68209 q 5.051,1.2853 10.17672,2.53817 c 29.93438,7.37818 60.8879,15.00885 85.70767,39.82861 0.60979,0.60979 1.16261,1.23989 1.752,1.85715 l 9.97427,-6.48445 a 10.10425,10.10425 0 0 0 3.47529,-3.79928 c -1.06644,-1.17252 -2.144,-2.34132 -3.28875,-3.48612 C 276.56425,249.242 248.48,242.31874 218.74687,234.98966 Z m -19.93295,19.93298 q -3.72217,-0.91747 -7.46168,-1.85484 v 13.20974 c 25.81676,6.56181 51.80263,14.68843 73.4551,35.04069 l 14.52114,-9.44055 c -0.0385,-0.0387 -0.0726,-0.0792 -0.11131,-0.11792 -22.58546,-22.58524 -50.66975,-29.50848 -80.40325,-36.83712 z m -31.47711,-8.58681 c -16.28,-5.27813 -32.11777,-12.39682 -46.344,-24.13081 l -14.68176,9.5451 c 17.87023,15.55727 38.7844,22.67266 61.02572,28.50068 z"
       class="cls-2"
       id="path3820" />
    <path
       d="m 73.24049,254.95972 c -0.348,-0.348 -0.6585,-0.70949 -0.99967,-1.05976 l -12.51495,8.13648 a 10.16548,10.16548 0 0 0 -1.64428,1.3968 c 1.05336,1.15677 2.11561,2.31024 3.24544,3.44 22.5852,22.58519 50.66968,29.50838 80.40322,36.83688 25.3425,6.24691 51.40113,12.71661 73.86454,29.60253 l 14.80574,-9.62562 c -20.86424,-16.41993 -45.53021,-22.50891 -71.45287,-28.898 -29.93385,-7.37888 -60.88738,-15.00944 -85.70717,-39.82931 z"
       class="cls-2"
       id="path3822" />
    <path
       d="m 218.86377,209.9618 -27.51159,-17.886 v 8.4759 a 215.88,215.88 0 0 0 27.51159,9.4101 z m -27.51159,5.82989 v 11.89938 c 9.09108,2.77471 18.28849,5.05388 27.39469,7.29853 29.73311,7.32909 57.81738,14.25232 80.40261,36.83773 1.14474,1.14474 2.22232,2.31354 3.28875,3.48611 a 10.19327,10.19327 0 0 0 -3.4753,-13.27711 l -44.6831,-29.04976 c -10.84437,-3.58121 -21.89768,-6.31656 -32.81794,-9.00838 -10.29656,-2.53799 -20.37113,-5.07145 -30.10971,-8.1865 z M 167.33681,206.032 a 110.99292,110.99292 0 0 1 -11.31571,-6.59969 l -10.21821,6.6432 a 124.31932,124.31932 0 0 0 21.53392,12.62007 z m 34.19212,37.87941 q -5.12528,-1.26352 -10.17673,-2.53816 v 11.6946 q 3.73686,0.938 7.46168,1.85485 c 29.73352,7.32863 57.8178,14.25187 80.40318,36.83709 0.0388,0.0388 0.0728,0.0792 0.11132,0.11792 l 9.66023,-6.28051 c -0.58945,-0.61726 -1.14225,-1.24733 -1.752,-1.85715 -24.81978,-24.81979 -55.7733,-32.45048 -85.70768,-39.82864 z m -34.19212,-9.50272 a 124.54057,124.54057 0 0 1 -36.33923,-18.708 l -10.00473,6.50436 c 14.22612,11.734 30.06393,18.85268 46.344,24.1308 z m 0,25.84203 c -22.24132,-5.828 -43.1555,-12.94341 -61.02572,-28.5006 l -9.8338,6.39315 c 20.98652,19.336 45.95407,27.41893 70.85947,33.8211 z m 24.01537,17.73256 c 23.26546,6.00539 45.14367,13.18886 63.67506,29.69312 l 9.78,-6.35823 C 243.15475,280.96592 217.16889,272.83924 191.35215,266.27749 Z M 81.94813,247.589 72.24084,253.9 c 0.34117,0.35032 0.65166,0.71178 0.99967,1.05976 24.81977,24.81979 55.77329,32.45043 85.70706,39.82925 25.92266,6.38909 50.58863,12.47807 71.45288,28.898 l 9.94772,-6.46724 C 216.84311,297.42899 188.84117,290.47612 161.6626,283.77755 132.22712,276.52186 104.4158,269.63985 81.94813,247.589 Z M 61.327,266.87321 c -1.12983,-1.12983 -2.19209,-2.28328 -3.24545,-3.44 a 10.1544,10.1544 0 0 0 1.64428,15.67957 l 33.5887,21.83694 c 14.86583,6.15509 30.41359,10.0039 45.70058,13.77166 23.8684,5.88357 46.66708,11.52464 66.4189,25.197 l 10.1606,-6.6057 C 193.13129,316.42681 167.07261,309.95706 141.73014,303.71015 111.99671,296.38164 83.91223,289.4584 61.327,266.87321 Z m 109.30024,84.33948 c 2.2354,1.0861 4.44718,2.22919 6.62269,3.46036 a 10.16012,10.16012 0 0 0 7.64543,-1.402 l 5.63858,-3.66577 c -18.11065,-12.11266 -38.24653,-18.247 -58.31095,-23.36044 z"
       class="cls-1"
       id="path3824" />
  </g>
  <path
     style="fill:#ffffff;stroke-width:5.97049"
     fill-rule="evenodd"
     d="m 645.3915,98.352658 c -26.38956,0 -47.76392,21.374352 -47.76392,47.763922 0,21.13554 13.67243,38.9873 32.65858,45.31602 2.3882,0.41793 3.28377,-1.01499 3.28377,-2.26879 0,-1.13439 -0.0597,-4.8958 -0.0597,-8.89603 -12.00069,2.20908 -15.10534,-2.92554 -16.06062,-5.61226 -0.53734,-1.37321 -2.86583,-5.61226 -4.8958,-6.74665 -1.67174,-0.89557 -4.05993,-3.10465 -0.0597,-3.16436 3.76141,-0.0597 6.44813,3.46288 7.3437,4.8958 4.29876,7.22429 11.16482,5.19433 13.91124,3.94052 0.41794,-3.10465 1.67174,-5.19432 3.04495,-6.38842 -10.62747,-1.1941 -21.73258,-5.31373 -21.73258,-23.58343 0,-5.19433 1.85085,-9.49308 4.8958,-12.83655 -0.47764,-1.1941 -2.14937,-6.08991 0.47764,-12.65745 0,0 4.00023,-1.2538 13.13508,4.8958 3.82111,-1.07469 7.88105,-1.61203 11.94098,-1.61203 4.05993,0 8.11986,0.53734 11.94098,1.61203 9.13485,-6.20931 13.13507,-4.8958 13.13507,-4.8958 2.62702,6.56754 0.95528,11.46335 0.47764,12.65745 3.04495,3.34347 4.8958,7.58252 4.8958,12.83655 0,18.3294 -11.16481,22.38933 -21.79228,23.58343 1.73144,1.49262 3.22406,4.35846 3.22406,8.83633 0,6.38842 -0.0597,11.52304 -0.0597,13.13507 0,1.2538 0.89557,2.74643 3.28376,2.26879 a 47.841537,47.841537 0 0 0 32.53918,-45.31602 c 0,-26.38957 -21.37436,-47.763922 -47.76392,-47.763922 z"
     id="path3902" />
  <path
     class="st0"
     d="m 45.453489,118.1443 63.644891,13.39 c 0.46633,0.1 0.86357,0.45 0.86357,1 v 48.85 c 0,0.55 -0.39724,0.91 -0.86357,1 l -63.644891,13.47 c -0.466326,0.1 -0.863567,-0.45 -0.863567,-1 v -75.71 c 0,-0.55 0.397241,-1.1 0.863567,-1 z m -41.0021663,6.7 8.6615783,-1.67 v 67.59 l -8.6615783,-1.7 c -0.328156,-0.07 -0.5958607,-0.31 -0.5958607,-0.69 v -62.84 c 0,-0.38 0.2677047,-0.62 0.5958607,-0.69 z m 12.0122183,-2.32 9.879208,-1.91 v 72.75 l -9.879208,-1.93 z m 13.238484,-2.55 11.321365,-2.18 c 0.31952,-0.06 0.595861,0.31 0.595861,0.69 v 77.1 c 0,0.38 -0.267706,0.75 -0.595861,0.69 l -11.321365,-2.23 v -73.81 z m 77.211535,16.01 v 42.05 h -1.12264 v -42.05 z m -53.290726,-8.37 v 60.06 h -3.359276 v -61.26 z m 9.19699,0.99 v 57.48 h -3.082935 v -57.94 z m 8.229794,1.54 v 54.33 h -2.797957 v -54.94 z m 7.340324,1.33 v 51.83 h -2.52162 v -52.51 z m 6.77036,1.26 v 49.13 h -2.24527 v -49.67 z m 6.24359,0.91 v 47.11 h -1.96029 v -47.63 z m 5.59592,1.18 v 44.92 h -1.68396 v -45.53 z m 5.215938,1.02 v 42.97 h -1.39898 v -43.72 z"
     id="path69"
     style="clip-rule:evenodd;display:inline;fill:#ffffff;fill-rule:evenodd;stroke-width:0.929283" />
</svg>
