<?xml version="1.0" encoding="UTF-8" standalone="no"?>
<svg
   xmlns:dc="http://purl.org/dc/elements/1.1/"
   xmlns:cc="http://creativecommons.org/ns#"
   xmlns:rdf="http://www.w3.org/1999/02/22-rdf-syntax-ns#"
   xmlns:svg="http://www.w3.org/2000/svg"
   xmlns="http://www.w3.org/2000/svg"
   xmlns:sodipodi="http://sodipodi.sourceforge.net/DTD/sodipodi-0.dtd"
   xmlns:inkscape="http://www.inkscape.org/namespaces/inkscape"
   inkscape:version="1.0 (4035a4fb49, 2020-05-01)"
   sodipodi:docname="kubernetes-sync.svg"
   width="3.9937818in"
   height="3.3558042in"
   id="svg2"
   version="1.1">
  <sodipodi:namedview
     fit-margin-bottom="0"
     fit-margin-right="0"
     fit-margin-left="0"
     fit-margin-top="0"
     inkscape:current-layer="svg2"
     inkscape:window-maximized="1"
     inkscape:window-y="28"
     inkscape:window-x="0"
     inkscape:cy="181.40795"
     inkscape:cx="174.54686"
     inkscape:zoom="1.5381494"
     inkscape:pagecheckerboard="false"
     units="in"
     showgrid="false"
     id="namedview16"
     inkscape:window-height="1024"
     inkscape:window-width="1920"
     inkscape:pageshadow="2"
     inkscape:pageopacity="1"
     guidetolerance="10"
     gridtolerance="10"
     objecttolerance="10"
     borderopacity="1"
     bordercolor="#666666"
     pagecolor="#757575" />
  <defs
     id="defs4">
    <marker
       inkscape:stockid="TriangleOutL"
       orient="auto"
       refY="0"
       refX="0"
       id="marker1412"
       style="overflow:visible"
       inkscape:isstock="true">
      <path
         id="path1410"
         d="M 5.77,0 -2.88,5 V -5 Z"
         style="fill:#ffffff;fill-opacity:0;fill-rule:evenodd;stroke:#ffffff;stroke-width:1pt;stroke-opacity:1"
         transform="scale(0.8)" />
    </marker>
    <marker
       inkscape:collect="always"
       inkscape:isstock="true"
       style="overflow:visible"
       id="TriangleOutL"
       refX="0"
       refY="0"
       orient="auto"
       inkscape:stockid="TriangleOutL">
      <path
         transform="scale(0.8)"
         style="fill:#ffffff;fill-opacity:0;fill-rule:evenodd;stroke:#ffffff;stroke-width:1pt;stroke-opacity:1"
         d="M 5.77,0 -2.88,5 V -5 Z"
         id="path1070" />
    </marker>
    <marker
       inkscape:isstock="true"
       style="overflow:visible"
       id="Arrow2Lend"
       refX="0"
       refY="0"
       orient="auto"
       inkscape:stockid="Arrow2Lend">
      <path
         transform="matrix(-1.1,0,0,-1.1,-1.1,0)"
         d="M 8.7185878,4.0337352 -2.2072895,0.01601326 8.7185884,-4.0017078 c -1.7454984,2.3720609 -1.7354408,5.6174519 -6e-7,8.035443 z"
         style="fill:#000000;fill-opacity:1;fill-rule:evenodd;stroke:#000000;stroke-width:0.625;stroke-linejoin:round;stroke-opacity:1"
         id="path949" />
    </marker>
  </defs>
  <metadata
     id="metadata7">
    <rdf:RDF>
      <cc:Work
         rdf:about="">
        <dc:format>image/svg+xml</dc:format>
        <dc:type
           rdf:resource="http://purl.org/dc/dcmitype/StillImage" />
        <dc:title></dc:title>
      </cc:Work>
    </rdf:RDF>
  </metadata>
  <g
     style="fill:#ffffff"
     id="layer1"
     transform="matrix(0.17598785,0,0,0.17598785,130.57937,67.52701)">
    <g
       style="fill:#ffffff"
       id="g3052">
      <path
         id="path3055"
         style="fill:#ffffff;fill-opacity:1;stroke:#ffffff;stroke-width:0;stroke-miterlimit:4;stroke-dasharray:none;stroke-opacity:1"
         d="m 361.60547,10 a 46.724621,46.342246 0 0 0 -2.61914,0.06055 46.724621,46.342246 0 0 0 -17.90625,4.53125 l -244.343752,116.75 a 46.724621,46.342246 0 0 0 -25.28125,31.4375 l -60.28125,262.25 a 46.724621,46.342246 0 0 0 6.34375,35.53125 46.724621,46.342246 0 0 0 2.65625,3.6875 L 189.29883,674.5293 a 46.724621,46.342246 0 0 0 36.53125,17.4375 l 271.21875,-0.0625 a 46.724621,46.342246 0 0 0 36.53125,-17.40625 l 169.0625,-210.3125 a 46.724621,46.342246 0 0 0 9.03125,-39.21875 l -60.375,-262.25 A 46.724621,46.342246 0 0 0 626.01758,131.2793 L 381.64258,14.591797 A 46.724621,46.342246 0 0 0 361.60547,10 Z m -0.19727,89.306641 c 8.07696,-8.2e-4 14.62404,7.275909 14.625,16.249999 0.005,1.27224 0.075,2.97962 0.0312,4.15625 -0.19262,5.176 -1.3209,9.13749 -2,13.90625 -1.23028,10.20666 -2.29242,18.66736 -1.65625,26.53125 0.57783,3.93564 2.87754,5.49085 4.78125,7.3125 0.0433,1.06008 0.21369,4.58253 0.34375,6.53125 46.50139,4.13084 89.68745,25.39568 121.40625,58.65625 l 5.5625,-3.96875 c 1.88509,0.11103 6.03899,0.68231 8.875,-0.96875 6.54468,-4.40598 12.50626,-10.5178 19.71875,-17.84375 3.3048,-3.50436 5.72975,-6.84079 9.65625,-10.21875 0.89647,-0.77123 2.25144,-1.8029 3.25,-2.59375 7.01538,-5.59633 16.77567,-5.00158 21.8125,1.3125 5.03683,6.31408 3.42163,15.96617 -3.59375,21.5625 -0.98985,0.79616 -2.2765,1.89799 -3.21875,2.59375 -4.16671,3.07677 -8.00458,4.65123 -12.15625,7.09375 -8.74671,5.40227 -15.99866,9.88056 -21.75,15.28125 -2.7166,2.90572 -2.51284,5.65708 -2.75,8.28125 -0.81131,0.74534 -3.67245,3.27896 -5.1875,4.65625 12.60588,18.76291 22.05786,40.05904 27.40625,63.34375 5.29905,23.06991 6.12476,46.12683 3.0625,68.28125 l 5.90625,1.71875 c 1.06152,1.50251 3.24424,5.15347 6.3125,6.34375 7.52525,2.36981 15.99419,3.24112 26.21875,4.3125 4.80033,0.3989 8.94213,0.16122 14.03125,1.125 1.21775,0.23062 2.99607,0.71487 4.25,1 8.6207,2.08049 14.15574,10.00554 12.375,17.8125 -1.78116,7.80879 -10.20264,12.55445 -18.875,10.6875 -0.0626,-0.0143 -0.15345,-0.0167 -0.21875,-0.0312 -0.0979,-0.0223 -0.18405,-0.07 -0.28125,-0.0937 -1.20887,-0.2653 -2.72376,-0.52941 -3.78125,-0.8125 -5.0034,-1.33937 -8.62685,-3.33944 -13.125,-5.0625 -9.67712,-3.47027 -17.69168,-6.37063 -25.5,-7.5 -3.96556,-0.31227 -5.98796,1.58055 -8.1875,3.03125 -1.06846,-0.21439 -4.3576,-0.79633 -6.25,-1.09375 -14.01394,44.04121 -43.8551,82.17434 -84.3125,106.0625 0.69869,1.68616 1.88372,5.27148 2.4375,5.90625 -0.92472,2.46726 -2.31211,4.82843 -1.125,8.625 2.83907,7.36105 7.43154,14.55683 12.96875,23.21875 2.68105,4.00177 5.42429,7.07649 7.84375,11.65625 0.57895,1.09586 1.34736,2.77936 1.90625,3.9375 3.76099,8.04135 1.00075,17.30335 -6.21875,20.78125 -7.27663,3.50542 -16.32393,-0.19641 -20.21875,-8.28125 -0.5565,-1.14514 -1.34016,-2.66805 -1.8125,-3.75 -2.07238,-4.74692 -2.79262,-8.81514 -4.25,-13.40625 -3.32035,-9.72959 -6.04586,-17.78477 -10.03125,-24.59375 -2.22831,-3.29511 -4.96316,-3.71607 -7.46875,-4.53125 -0.46387,-0.7993 -2.19402,-3.97367 -3.125,-5.625 -8.07931,3.05305 -16.43678,5.59693 -25.09375,7.5625 -37.94834,8.61621 -75.93676,5.12055 -109.875,-7.90625 l -3.3125,6 c -2.46561,0.66014 -4.84405,1.33008 -6.30273,3.07031 -5.32691,6.35508 -7.45265,16.5533 -11.32227,26.27344 -1.45714,4.59119 -2.14662,8.65923 -4.21875,13.40625 -0.46897,1.07438 -1.25657,2.5762 -1.8125,3.71875 -0.004,0.009 0.004,0.0222 0,0.0312 -0.006,0.0114 -0.0253,0.0199 -0.0312,0.0312 -3.90303,8.05866 -12.92175,11.74788 -20.1875,8.25 -7.22039,-3.47605 -9.97759,-12.73889 -6.21875,-20.78125 0.55882,-1.15818 1.2961,-2.84161 1.875,-3.9375 2.41922,-4.57989 5.1629,-7.68558 7.84375,-11.6875 5.53675,-8.66221 10.39765,-16.43177 13.23633,-23.79297 0.71319,-2.44462 -0.34141,-5.79411 -1.29883,-8.26953 l 2.65625,-6.375 c -38.92959,-23.06748 -69.67357,-59.82968 -84.34375,-105.3125 l -6.375,1.09375 c -1.70914,-0.95659 -5.14507,-3.22417 -8.40625,-2.96875 -7.80827,1.12978 -15.82306,4.02923 -25.5,7.5 -4.49806,1.72329 -8.12166,3.69162 -13.125,5.03125 -1.05748,0.28315 -2.5724,0.57839 -3.78125,0.84375 -0.0972,0.0238 -0.18335,0.0713 -0.28125,0.0937 -0.0652,0.0145 -0.15615,0.017 -0.21875,0.0312 -8.67186,1.86927 -17.09184,-2.87917 -18.875,-10.6875 -1.78274,-7.8065 3.75486,-15.72971 12.375,-17.8125 0.0642,-0.0146 0.15195,-0.047 0.21875,-0.0625 0.0426,-0.01 0.0824,-0.0223 0.125,-0.0312 1.22553,-0.28748 2.78617,-0.69407 3.90625,-0.90625 5.08907,-0.96405 9.23094,-0.72585 14.03125,-1.125 10.22451,-1.07191 18.69362,-1.94229 26.21875,-4.3125 2.38589,-0.97901 4.66695,-4.25914 6.28125,-6.34375 l 6.125,-1.78125 c -6.86316,-47.52804 4.75033,-94.17382 29.84375,-131.9375 l -4.6875,-4.1875 c -0.29892,-1.82458 -0.69148,-6.04333 -2.9375,-8.4375 -5.75163,-5.40039 -13.003,-9.87944 -21.75,-15.28125 -4.1518,-2.4423 -7.95813,-4.0172 -12.125,-7.09375 -0.88629,-0.65437 -2.06703,-1.65588 -3.03125,-2.4375 -0.0717,-0.0555 -0.14755,-0.0995 -0.21875,-0.15625 -7.01687,-5.59445 -8.62896,-15.24712 -3.59375,-21.5625 2.83231,-3.5524 7.16036,-5.31019 11.65625,-5.15625 3.4968,0.11973 7.11762,1.39618 10.1875,3.84375 0.99742,0.7892 2.35828,1.82668 3.25,2.59375 3.92668,3.37774 6.32002,6.71456 9.625,10.21875 7.21288,7.32557 13.17384,13.40687 19.71875,17.8125 3.43729,2.00204 6.07633,1.19637 8.6875,0.84375 0.84027,0.62086 3.66603,2.64807 5.28125,3.75 24.89242,-26.41068 57.58789,-45.97157 95.5625,-54.59375 8.82515,-2.00376 17.66068,-3.33533 26.4375,-4.0625 l 0.34375,-6.1875 c 1.94712,-1.88509 4.13131,-4.5971 4.75,-7.5625 0.63617,-7.86389 -0.39472,-16.32459 -1.625,-26.53125 -0.6791,-4.76876 -1.80738,-8.73025 -2,-13.90625 -0.0396,-1.06164 0.0193,-2.53064 0.0312,-3.75 -0.003,-0.13691 -0.0312,-0.26852 -0.0312,-0.40625 -9.6e-4,-8.97409 6.54804,-16.249179 14.625,-16.249999 z M 343.0957,212.74414 c -5.18409,0.6284 -10.38776,1.50547 -15.59375,2.6875 -28.49959,6.47086 -53.22885,20.5201 -72.5625,39.53125 l 62.90625,44.59375 0.125,-0.0625 c 2.13081,1.55646 4.75294,2.46875 7.59375,2.46875 6.93504,0 12.58366,-5.4804 12.875,-12.34375 l 0.3125,-0.15625 z m 36.65625,0 4.34375,76.59375 0.0625,0.0312 c 0.11178,2.63636 1.04118,5.24779 2.8125,7.46875 4.32407,5.42139 12.14005,6.42669 17.6875,2.375 l 0.21875,0.0937 62.5,-44.3125 c -23.57999,-23.09118 -54.35153,-38.15768 -87.625,-42.25 z m -147.625,70.875 c -17.04645,27.77011 -25.12228,61.07858 -21.375,95.34375 l 73.625,-21.25 0.0625,-0.25 c 2.54542,-0.69551 4.9163,-2.1852 6.6875,-4.40625 4.32388,-5.42206 3.55937,-13.24303 -1.625,-17.75 l 0.0625,-0.3125 z m 258.15625,0.0312 -57.125,51.125 0.0312,0.15625 c -1.99153,1.73111 -3.46172,4.07413 -4.09375,6.84375 -1.54268,6.76088 2.52975,13.50146 9.15625,15.3125 l 0.0625,0.3125 74,21.3125 c 1.56749,-15.96428 0.61356,-32.48297 -3.1875,-49.03125 -3.8472,-16.74911 -10.30965,-32.19869 -18.84375,-46.03125 z m -140.65625,55.3125 -14.65625,18.25 5.25,22.8125 21.1875,10.1875 21.125,-10.15625 5.25,-22.8125 -14.625,-18.28125 z m 75.4375,62.5625 c -1.66661,0.0842 -3.33785,0.51084 -4.9375,1.28125 -6.248,3.00919 -8.96561,10.40876 -6.25,16.71875 l -0.0937,0.125 29.5625,71.40625 c 28.49594,-18.15357 49.82325,-45.28065 60.96875,-76.59375 l -76.15625,-12.875 -0.125,0.15625 c -0.97317,-0.17915 -1.96878,-0.26925 -2.96875,-0.21875 z m -127.90625,0.3125 c -0.83025,-0.0117 -1.68674,0.0633 -2.53125,0.21875 l -0.125,-0.15625 -75.5,12.8125 c 11.65198,32.23842 33.43409,58.5139 60.78125,76.0625 l 29.25,-70.6875 -0.21875,-0.28125 c 1.04325,-2.42375 1.35094,-5.16792 0.71875,-7.9375 -1.35038,-5.916 -6.56326,-9.94975 -12.375,-10.03125 z m 63.78125,30.96875 c -4.45378,0.16363 -8.67858,2.64809 -10.90625,6.8125 h -0.0625 l -37.125,67.125 c 25.69263,8.75467 54.06672,10.7129 82.53125,4.25 5.07891,-1.15317 10.04471,-2.53702 14.875,-4.15625 l -37.21875,-67.25 h -0.28125 c -1.24452,-2.32681 -3.22174,-4.26747 -5.78125,-5.5 -1.9526,-0.94027 -4.0068,-1.35565 -6.03125,-1.28125 z"
         transform="translate(6.3260942,174.7524)" />
    </g>
  </g>
  <style
     type="text/css"
     id="style67">.st0{fill-rule:evenodd;clip-rule:evenodd;}</style>
  <path
     style="fill:#ffffff;stroke-width:0.929283"
     id="path69"
     d="m 41.598027,123.01475 63.644893,13.39 c 0.46633,0.1 0.86357,0.45 0.86357,1 v 48.85 c 0,0.55 -0.39724,0.91 -0.86357,1 l -63.644893,13.47 c -0.466326,0.1 -0.863567,-0.45 -0.863567,-1 v -75.71 c 0,-0.55 0.397241,-1.1 0.863567,-1 z m -41.002166,6.7 8.661578,-1.67 v 67.59 l -8.661578,-1.7 C 0.267705,193.86475 0,193.62475 0,193.24475 v -62.84 c 0,-0.38 0.267705,-0.62 0.595861,-0.69 z m 12.012218,-2.32 9.879208,-1.91 v 72.75 l -9.879208,-1.93 z m 13.238484,-2.55 11.321365,-2.18 c 0.31952,-0.06 0.595861,0.31 0.595861,0.69 v 77.1 c 0,0.38 -0.267706,0.75 -0.595861,0.69 l -11.321365,-2.23 v -73.81 z m 77.211537,16.01 v 42.05 h -1.12264 v -42.05 z m -53.290728,-8.37 v 60.06 h -3.359276 v -61.26 z m 9.19699,0.99 v 57.48 h -3.082935 v -57.94 z m 8.229794,1.54 v 54.33 h -2.797957 v -54.94 z m 7.340324,1.33 v 51.83 h -2.52162 v -52.51 z m 6.77036,1.26 v 49.13 h -2.24527 v -49.67 z m 6.24359,0.91 v 47.11 h -1.96029 v -47.63 z m 5.59592,1.18 v 44.92 h -1.68396 v -45.53 z m 5.21594,1.02 v 42.97 h -1.39898 v -43.72 z"
     class="st0" />
  <path
     d="M 337.92353,95.12981 A 141.97006,85.373848 0 0 0 195.97739,11.323 141.97006,85.373848 0 0 0 54.03122,95.13037"
     style="fill:#ffffff;fill-opacity:0;stroke:#ffffff;stroke-width:2.646;stroke-miterlimit:4;stroke-dasharray:7.938,2.646;stroke-dashoffset:0;marker-end:url(#TriangleOutL)"
     id="path93" />
  <path
     id="path1338"
     d="m 316.19217,113.24201 c -2.44041,0 -4.40508,1.96467 -4.40508,4.40508 v 79.29143 c 0,2.44041 1.96467,4.40508 4.40508,4.40508 h 61.67111 c 2.44041,0 4.40508,-1.96467 4.40508,-4.40508 v -57.26603 l -24.22794,-2.20254 -2.20254,-24.22794 z"
     fill="#607d8b"
     style="fill:none;stroke-width:1.76203" />
  <path
     id="path1342"
     d="m 357.99142,113.06755 v 21.22613 c 0,2.34472 1.89621,4.24522 4.23527,4.24522 h 21.17636 z"
     fill="#b1d1e0"
     style="fill:#ffffff;stroke-width:1.69609" />
  <path
     id="path1346"
     d="m 327.64538,144.00671 v 5.28609 h 28.1925 v -5.28609 z m 10.57219,10.57219 v 5.28609 h 28.1925 v -5.28609 z m 10.57219,21.14438 v 5.28609 h 17.62031 v -5.28609 z m 0,-10.57219 v 5.28609 h 17.62031 v -5.28609 z"
     style="fill:#ffffff;stroke-width:1.76203" />
  <path
     id="path1408"
     style="fill:#ffffff;fill-opacity:0;stroke:#ffffff;stroke-width:2.64599991;stroke-miterlimit:4;stroke-dasharray:15.87599945,2.64599991;stroke-dashoffset:0;marker-end:url(#marker1412)"
     d="M 52.03122,231.02683 A 141.97006,85.373848 0 0 0 193.97739,314.8342 141.97006,85.373848 0 0 0 335.92353,231.02739" />
  <path
     d="m 381.9765,138.43534 -10e-6,60.45909 c 0,3.07384 -2.47461,5.54844 -5.54845,5.54844 h -59.12328 c -3.07384,0 -5.54845,-2.4746 -5.54845,-5.54844 V 120.0271 c 0,-3.07384 2.47461,-5.54845 5.54845,-5.54845 v 0 h 40.715"
     style="fill:none;fill-opacity:1;stroke:#ffffff;stroke-width:2.646;stroke-miterlimit:4;stroke-dasharray:none;stroke-dashoffset:0"
     id="rect1657" />
</svg>
